<svg xmlns="http://www.w3.org/2000/svg" viewBox="0 0 420 420"><g fill="none" stroke-width="2"><path stroke="#dadbdc" stroke-opacity=".851" d="m276.54 105.25-10.33-18.5M261.29 77.5c-5.65-11.73-13.84-22.11-17.92-36.53q-.03-.1-.13-.14-.13-.04-.26-.09-.3-.1-.41-.38-.69-1.65-3.02-1.57-4.29.14-4.83 3.57" vector-effect="non-scaling-stroke"/><path stroke="#d1d5dc" stroke-opacity=".98" d="M261.29 77.5q1.48 5.13 4.92 9.25M276.54 105.25c.46 2.39 4.14 6.61 2.28 8.23q-.35.31-.35.78c0 4.54-3.18 6.72-4.45 9.99q-1.48 3.8-3.73 5.82-.72.64-.86 2.54-.04.52-.45.86-2.61 2.15-3.86 5.32-.2.52-.73.69-.66.22-.59.87.55 5.45-3.63 8.04-.45.28-.56.8-.53 2.6-3.04 3.5-.42.15-.66.53l-1.54 2.43q-.18.29.08.08l3.29-2.64" vector-effect="non-scaling-stroke"/><path stroke="#dadbdc" stroke-opacity=".851" d="m257.74 153.09-2.86 2.98q-.35.37-.32.87l.23 3.81" vector-effect="non-scaling-stroke"/><path stroke="#d3d3d5" stroke-opacity=".651" d="m254.79 160.75-.5.75" vector-effect="non-scaling-stroke"/><path stroke="#d1d5dc" stroke-opacity=".98" d="M254.29 161.5q.45-1.53-.05-2.97-.17-.51-.12.03.12 1.36-.85 1.8-.4.18-.54.59-.57 1.64-2.3 1.61-.64-.01-.64.63v2.31" vector-effect="non-scaling-stroke"/><path stroke="#dadbdc" stroke-opacity=".851" d="m249.79 165.5-.25 3.5" vector-effect="non-scaling-stroke"/><path stroke="#d3d3d5" stroke-opacity=".651" d="m249.54 169-1.5 3" vector-effect="non-scaling-stroke"/><path stroke="#dadbdc" stroke-opacity=".851" d="M236.57 189.62q-2.67 1.09-3.03 4.38" vector-effect="non-scaling-stroke"/><path stroke="#d1d5dc" stroke-opacity=".98" d="M228.96 201.25q-6.27-.05-6.24 5.7.01.47-.24.87-1.18 1.92-3.37 2.37-.57.11-.58.7c-.03 1.11-.62.9-1.14 1.48q-4.53 5.04-3.51 11.93a.7.69-11.2 0 1-.53.78l-4.56 1.11q-.78.18-.48.92 1.08 2.71.73 5.64M131.6 207.37q2.04.52 3.56-.37.47-.27.58-.81.53-2.79 3.46-2.41.65.08.68-.57c.29-5.12 4.22-11.52 6.52-16.13" vector-effect="non-scaling-stroke"/><path stroke="#dadbdc" stroke-opacity=".851" d="M146.4 187.08q.53-2.1-.44-4.08" vector-effect="non-scaling-stroke"/><path stroke="#d1d5dc" stroke-opacity=".98" d="M156.29 166.75q5.19-1.48 8.64-5.64" vector-effect="non-scaling-stroke"/><path stroke="#dadbdc" stroke-opacity=".851" d="M164.93 161.11q3.02-6.08 5.97-12.13.45-.93.35-2-.05-.52.19-.99l3.63-7.3q.28-.56.1-1.15l-.46-1.54M189.79 111.25q2.94-2.26 3.17-6" vector-effect="non-scaling-stroke"/><path stroke="#d1d5dc" stroke-opacity=".98" d="M214 70.96q2.6-.33 3.88-2.45c1.32-2.19 4.38-2.51 5.11-3.94.98-1.9 2.2-3.62 2.84-5.67q.15-.48.51-.82 1.22-1.15 1.47-2.77.05-.33.35-.5c.32-.18.53-.29.73-.64q3.29-5.72 5.83-11.81" vector-effect="non-scaling-stroke"/><path stroke="#d3d3d5" stroke-opacity=".651" d="M277.71 175.25q-2.28-.93-3.89-2.88-.3-.37-.79-.37h-1.5q-.43 0-.65.37-.59 1.01-1.84 1.13" vector-effect="non-scaling-stroke"/><path stroke="#d1d5dc" stroke-opacity=".98" d="M277.75 175.46q-.34-.04-.66.04-.78.19.02.23.64.04.46.84 3.89 9.43 8.64 18.43" vector-effect="non-scaling-stroke"/><path stroke="#dadbdc" stroke-opacity=".851" d="M286.21 195q2.86 5.38 5.57 10.84c3.82 7.69 8.52 15.7 12.3 23.84q.08.16.39.32.37.19.54.57c3.28 7.03 7.57 13.3 11.06 20.13q2.15 4.2 4.58 8.24" vector-effect="non-scaling-stroke"/><path stroke="#d1d5dc" stroke-opacity=".98" d="M320.65 258.94q3.21 8.37 8.6 15.52" vector-effect="non-scaling-stroke"/><path stroke="#dadbdc" stroke-opacity=".851" d="m329.25 274.46 3.79 6.79" vector-effect="non-scaling-stroke"/><path stroke="#d1d5dc" stroke-opacity=".98" d="M333.04 281.25q1.58 4.24 4.42 7.75" vector-effect="non-scaling-stroke"/><path stroke="#dadbdc" stroke-opacity=".851" d="M337.46 289q4.17 8.11 8.83 15.95c3.66 6.16 7.93 12.56 10.65 19.18q.9 2.19 2.11 4.22c2.73 4.58 4.47 8.42 7.18 12.87q3.85 6.3 10.03 19.55" vector-effect="non-scaling-stroke"/><path stroke="#d1d5dc" stroke-opacity=".98" d="M376.26 360.77q.35 4.37 3.54 7.41.39.37.48.91.23 1.33 1.34 1.92.48.25.61.77.52 2.03 2.23 3.22" vector-effect="non-scaling-stroke"/><path stroke="#dadbdc" stroke-opacity=".851" d="m384.46 375 1.83 3" vector-effect="non-scaling-stroke"/><path stroke="#d1d5dc" stroke-opacity=".98" d="M386.29 378v1" vector-effect="non-scaling-stroke"/><path stroke="#dadbdc" stroke-opacity=".851" d="M386.29 379c-.13 5.14 2.22 6.64 4.53 10.2q.26.41.69.64.79.41.45 1.42-.18.53.13.99 1.3 1.97.44 4.33" vector-effect="non-scaling-stroke"/><path stroke="#d1d5dc" stroke-opacity=".98" d="M248.68 206.13q3.32-1.17 5.87-4.31.81-.99 2.37-.81.58.07.83-.46l1.49-3.3q.58-1.27-.24-.14-.8 1.11-1.28 2.43-.97 2.71-.27-.1.32-1.26.8-2.44M258.25 197q3.98-3.86 5.46-9.25" vector-effect="non-scaling-stroke"/><path stroke="#dadbdc" stroke-opacity=".851" d="M263.71 187.75q.3-1.73 1.79-4.75 1.03-2.09 1.21-5.75" vector-effect="non-scaling-stroke"/><path stroke="#d1d5dc" stroke-opacity=".98" d="M237.79 301q1.42 5.26 4.43 9.71 1.83 2.69 3.05 5.33 3.12 6.71 8.53 11.85" vector-effect="non-scaling-stroke"/><path stroke="#d3d3d5" stroke-opacity=".651" d="M37.59 311.87q.93-2.91 2.77-5.26c.63-.8 1.55-.85 1.14-2.32" vector-effect="non-scaling-stroke"/></g><path fill="#404146" fill-opacity=".298" d="M242.46 37c-5.76-5.83-9.93.88-11.91 5.81q-1.73 4.31-8.28 14.45-1.31 2.03-2.52 2.94-.39.29-.55.74c-1.03 3.01-3.15 4.99-3.66 8.31l-1.04 1.21-.64-1.4q-.21-.46-.03-.92.85-2.17 1.67-4.47.16-.43.55-.67c1.32-.83 3.07-4.99 3.61-6.33q.19-.48.58-.82 1.48-1.29 1.23-3.16-.16-1.22.78-2.02 3.25-2.78 5.26-6.49c1.26-2.33 2.77-4.2 4.02-6.41q.18-.32.83-2.66.45-1.62 2.24-2.15.67-.2.11-.61c-1.71-1.29-4.06 5.57-4.32 6.62q-.07.28-.36.28h-.28q-.1 0-.06-.09l2.29-5.59q.5-1.23-.3-.17-1.03 1.37-1.15 3.09-.04.53-.57.5c-.74-.05-.36.54-.44.8-.44 1.35-1.56 1.78-2.18 2.97q-.38.73-.73 1.5-.2.43-.64.65-.83.41-.62 1.45a.19.18 44 0 0 .37 0q.58-3.8 1.99-5.78c1.65-2.3 2.29-3.37 2.97-5.8q.15-.53.64-.75 7.49-3.45 11.68 2.82.32.49-.07.93-.52.58-.47 1.22Z"/><path fill="#a4a7ab" fill-opacity=".698" d="m242.46 37 3.02 6.05c1.82 5.17 5.78 10.61 7.58 13.91q4.83 8.89 9.35 17.94c.58 1.16.5 2.1 1.3 3.3q1.27 1.92 1.39 2.16 4.41 9.11 10.16 17.45.13.19.25-.02.05-.11.03-.29l1 2.5q2.15 5.53 5.46 10.37.27.39.34.86c.46 3.19 1.92 5.89-.19 9.36-.55.9-1.51 1.38-2 2.36-1.42 2.8-3.41 5.2-4.97 7.95q-.12.21.1.11l.73-.32q.37-.16.13.17l-6.64 9.1q-1.11 1.43-1.04 3.29l-5.17 5.25q1.62-2.61 1.52-5.57-.02-.55.36-.93 1.17-1.18.81-2.87-.1-.48.35-.67c2.94-1.22 2.4-3.62 3.66-5.61.51-.8 5.57-7.69 5.47-7.92q-.1-.25-.15-.12-.03.1-.05.2-.98 4.75-.23-.07.18-1.17.76-2.2.08-.12.13.01.05.14.08.28.04.18.16.04 3.68-4.07 4.07-9.44c.22-3.08-2.18-5.78-3.69-8.38l-10.33-18.5q-.73-2.69-2.6-4.71-.33-.35-.53-.79l-1.79-3.75c-5.65-11.73-13.84-22.11-17.92-36.53q-.03-.1-.13-.14-.13-.04-.26-.09-.3-.1-.41-.38-.69-1.65-3.02-1.57-4.29.14-4.83 3.57l-12.79 21.87q-.25.44-.7.67-3.26 1.69-5.69 4.35c.51-3.32 2.63-5.3 3.66-8.31q.16-.45.55-.74 1.21-.91 2.52-2.94 6.55-10.14 8.28-14.45c1.98-4.93 6.15-11.64 11.91-5.81Z"/><path fill="#fff" d="M261.29 77.5q1.48 5.13 4.92 9.25l10.33 18.5c.46 2.39 4.14 6.61 2.28 8.23q-.35.31-.35.78c0 4.54-3.18 6.72-4.45 9.99q-1.48 3.8-3.73 5.82-.72.64-.86 2.54-.04.52-.45.86-2.61 2.15-3.86 5.32-.2.52-.73.69-.66.22-.59.87.55 5.45-3.63 8.04-.45.28-.56.8-.53 2.6-3.04 3.5-.42.15-.66.53l-1.54 2.43q-.18.29.08.08l3.29-2.64-2.86 2.98q-.35.37-.32.87l.23 3.81-.5.75q.45-1.53-.05-2.97-.17-.51-.12.03.12 1.36-.85 1.8-.4.18-.54.59-.57 1.64-2.3 1.61-.64-.01-.64.63v2.31l-.25 3.5-1.5 3q-2.44 3.59-4.52 7.43c-.99 1.82-2.81 2.07-3.44 4.09q-1.06 3.44-3.51 6.1-2.67 1.09-3.03 4.38l-4.58 7.25q-6.27-.05-6.24 5.7.01.47-.24.87-1.18 1.92-3.37 2.37-.57.11-.58.7c-.03 1.11-.62.9-1.14 1.48q-4.53 5.04-3.51 11.93a.7.69-11.2 0 1-.53.78l-4.56 1.11q-.78.18-.48.92 1.08 2.71.73 5.64-10.73 17.12-13.8 21.51-3.1 4.43-8.99 4.38-35.47-.32-70.94.15-6.89.09-13.03-.45a.99.98 18.1 0 1-.76-1.49l30.08-49.48q2.04.52 3.56-.37.47-.27.58-.81.53-2.79 3.46-2.41.65.08.68-.57c.29-5.12 4.22-11.52 6.52-16.13q.53-2.1-.44-4.08l10.33-16.25q5.19-1.48 8.64-5.64 3.02-6.08 5.97-12.13.45-.93.35-2-.05-.52.19-.99l3.63-7.3q.28-.56.1-1.15l-.46-1.54 15.08-24.75q2.94-2.26 3.17-6L214 70.96q2.6-.33 3.88-2.45c1.32-2.19 4.38-2.51 5.11-3.94.98-1.9 2.2-3.62 2.84-5.67q.15-.48.51-.82 1.22-1.15 1.47-2.77.05-.33.35-.5c.32-.18.53-.29.73-.64q3.29-5.72 5.83-11.81.54-3.43 4.83-3.57 2.33-.08 3.02 1.57.11.28.41.38.13.05.26.09.1.04.13.14c4.08 14.42 12.27 24.8 17.92 36.53Z"/><path fill="#a0a9b8" fill-opacity=".957" d="M234.72 42.36q-2.54 6.09-5.83 11.81c-.2.35-.41.46-.73.64q-.3.17-.35.5-.25 1.62-1.47 2.77-.36.34-.51.82c-.64 2.05-1.86 3.77-2.84 5.67-.73 1.43-3.79 1.75-5.11 3.94q-1.28 2.12-3.88 2.45l.5-.5 1.04-1.21q2.43-2.66 5.69-4.35.45-.23.7-.67l12.79-21.87Z"/><path fill="#404146" fill-opacity=".298" d="M245.48 43.05q5.79 6.07 9.22 12.64.34.66.74.95.4.29.55.76.79 2.49 2.46 4.43.36.42.38.96.09 2.2 1.67 3.7.36.34.44.83.4 2.49 2.49 3.73.44.26.5.77l.35 2.86q.02.14.15.09l.26-.08q.05-.02.25.15 2.55 2.29 2.38 5.79-.02.45.36.21.18-.13.15-.3 0-.02.01 0 2.3 4.46 4.95 8.68.27.42.25.92c-.1 2.84 1.58 4.79 2.5 7.36q.02.18-.03.29-.12.21-.25.02-5.75-8.34-10.16-17.45-.12-.24-1.39-2.16c-.8-1.2-.72-2.14-1.3-3.3q-4.52-9.05-9.35-17.94c-1.8-3.3-5.76-8.74-7.58-13.91Z"/><path fill="#a0a9b8" fill-opacity=".957" d="m261.29 77.5 1.79 3.75q.2.44.53.79 1.87 2.02 2.6 4.71-3.44-4.12-4.92-9.25Z"/><path fill="#404146" fill-opacity=".298" d="m276.54 100 2.05 2.83q.22.3.57.43l.61.23q.38.15.45.54.33 1.88 1.95 2.76.45.25.63.73l2.2 5.73-.68-.24q-.17-.06-.12.11 1.65 5.25-1.81 9.31c-1.39 1.64-1.54 3.28-2.75 4.84-2.3 2.96-2.99 6.47-6.2 9.08q-.39.32-.51.82-.63 2.72-3.43 2.79l6.64-9.1q.24-.33-.13-.17l-.73.32q-.22.1-.1-.11c1.56-2.75 3.55-5.15 4.97-7.95.49-.98 1.45-1.46 2-2.36 2.11-3.47.65-6.17.19-9.36q-.07-.47-.34-.86-3.31-4.84-5.46-10.37Z"/><path fill="#a4a7ab" fill-opacity=".698" d="M192.96 105.25q-.23 3.74-3.17 6 1.07-3.28 3.17-6Z"/><path fill="#a0a9b8" fill-opacity=".957" d="M276.54 105.25c1.51 2.6 3.91 5.3 3.69 8.38q-.39 5.37-4.07 9.44-.12.14-.16-.04-.03-.14-.08-.28-.05-.13-.13-.01-.58 1.03-.76 2.2-.75 4.82.23.07.02-.1.05-.2.05-.13.15.12c.1.23-4.96 7.12-5.47 7.92-1.26 1.99-.72 4.39-3.66 5.61q-.45.19-.35.67.36 1.69-.81 2.87-.38.38-.36.93.1 2.96-1.52 5.57-1.19.9-1.83 2.25-2.36.67-3.72 2.34l-3.29 2.64q-.26.21-.08-.08l1.54-2.43q.24-.38.66-.53 2.51-.9 3.04-3.5.11-.52.56-.8 4.18-2.59 3.63-8.04-.07-.65.59-.87.53-.17.73-.69 1.25-3.17 3.86-5.32.41-.34.45-.86.14-1.9.86-2.54 2.25-2.02 3.73-5.82c1.27-3.27 4.45-5.45 4.45-9.99q0-.47.35-.78c1.86-1.62-1.82-5.84-2.28-8.23Z"/><path fill="#404146" fill-opacity=".298" d="M285 113.25q1.7 1.93.82 4.16-.31.78-.39-.06l-.43-4.1Z"/><path fill="#a4a7ab" fill-opacity=".698" d="m174.71 136 .46 1.54q.18.59-.1 1.15l-3.63 7.3q-.24.47-.19.99.1 1.07-.35 2-2.95 6.05-5.97 12.13 2.11-6.48 5.32-12.36l1.88-5.43q.39-1.12-.24-.12-1.59 2.53-1.64 5.55c-1.75.81-1.67 2.44-2.37 3.62q-3.21 5.5-6.64 10.9-.94 1.47-4.7 2.98.8-3.39 2.52-5.44 1.05-1.24.81-2.62 1.1-2.73 3.48-4.54.61-.47.16.16l-.82 1.12q-.79 1.1.19.17 2.11-1.99 2.9-4.8 3.52-12.57-.27-.1-.36 1.18-1.03 2.23-1.76 2.75-.34-.23l3.82-7.99q3.86-3.66 6.75-8.21Z"/><path fill="#a0a9b8" fill-opacity=".957" d="M170.25 148.75q.05-3.02 1.64-5.55.63-1 .24.12l-1.88 5.43Z"/><path fill="#404146" fill-opacity=".298" d="M268.46 143.25q-.09 3.71-2.72 5.9c-1.85 1.52-2.38 2.71-3.47 4.6q-.22.39-.24.84-.07 1.91-1.76 2.96-.27.17-.27.49v.47q0 .22-.17.36-1.52 1.3-2.2 3.24-.16.44-.52.76c-1.94 1.74-2.49 4.18-4.72 5.65q-.42.27-.54.75l-.58 2.16q-.14.54-.7.54l-2.53.03 1.5-3c-.52-4.9 3.67-2.99 3.97-5.66q.64-.88.78-1.84l.5-.75q2.74-1.24 3.63-4.12.14-.49.55-.81 2.43-1.91 2.49-5.07.64-1.35 1.83-2.25l5.17-5.25ZM167.96 144.21l-3.82 7.99q-1.42 2.98.34.23.67-1.05 1.03-2.23 3.79-12.47.27.1-.79 2.81-2.9 4.8-.98.93-.19-.17l.82-1.12q.45-.63-.16-.16-2.38 1.81-3.48 4.54-.59.37-1.05 1.06-.16.25.14.25h.26q.52-.01.08.28l-.83.53q-.38.25-.49-.2-.27-1.17.67-1.63.51-.25.59-.81.16-1.23 1.01-1.94c2.41-2 2.67-4.17 4.42-6.5q.86-1.15 1.32-2.59.02-.06-.05-.06h-.27q-.12 0-.03-.09l2.32-2.28Z"/><path fill="#a0a9b8" fill-opacity=".957" d="M170.25 148.75q-3.21 5.88-5.32 12.36-3.45 4.16-8.64 5.64l.25-.5q3.76-1.51 4.7-2.98 3.43-5.4 6.64-10.9c.7-1.18.62-2.81 2.37-3.62Z"/><path fill="#a4a7ab" fill-opacity=".698" d="M261.46 150.75q-.06 3.16-2.49 5.07-.41.32-.55.81-.89 2.88-3.63 4.12l-.23-3.81q-.03-.5.32-.87l2.86-2.98q1.36-1.67 3.72-2.34Z"/><path fill="#a0a9b8" fill-opacity=".957" d="M254.29 161.5q-.14.96-.78 1.84l-3.72 2.16v-2.31q0-.64.64-.63 1.73.03 2.3-1.61.14-.41.54-.59.97-.44.85-1.8-.05-.54.12-.03.5 1.44.05 2.97Z"/><path fill="#a4a7ab" fill-opacity=".698" d="M253.51 163.34c-.3 2.67-4.49.76-3.97 5.66l.25-3.5 3.72-2.16Z"/><path fill="#404146" fill-opacity=".298" d="M277.71 175.25q-2.28-.93-3.89-2.88-.3-.37-.79-.37h-1.5q-.43 0-.65.37-.59 1.01-1.84 1.13.51-4.56 5.24-6.09a1.77 1.77 0 0 1 2.29 1.38l1.14 6.46Z"/><path fill="#fff" d="m277.71 175.25.04.21q-.34-.04-.66.04-.78.19.02.23.64.04.46.84 3.89 9.43 8.64 18.43 2.86 5.38 5.57 10.84c3.82 7.69 8.52 15.7 12.3 23.84q.08.16.39.32.37.19.54.57c3.28 7.03 7.57 13.3 11.06 20.13q2.15 4.2 4.58 8.24 3.21 8.37 8.6 15.52l3.79 6.79q1.58 4.24 4.42 7.75 4.17 8.11 8.83 15.95c3.66 6.16 7.93 12.56 10.65 19.18q.9 2.19 2.11 4.22c2.73 4.58 4.47 8.42 7.18 12.87q3.85 6.3 10.03 19.55.35 4.37 3.54 7.41.39.37.48.91.23 1.33 1.34 1.92.48.25.61.77.52 2.03 2.23 3.22l1.83 3v1c-.13 5.14 2.22 6.64 4.53 10.2q.26.41.69.64.79.41.45 1.42-.18.53.13.99 1.3 1.97.44 4.33c-24.66.27-50.05 1.16-74.62-.24a1.45 1.44-88.7 0 1-1.37-1.44c-.02-2.02-.42-3.84-1.51-5.68q-43.41-73.24-87.37-146.15-.28-.46-.17-.99c.8-3.78 2.91-6.27 4.87-9.42q8.24-13.17 16.32-26.53 3.32-1.17 5.87-4.31.81-.99 2.37-.81.58.07.83-.46l1.49-3.3q.58-1.27-.24-.14-.8 1.11-1.28 2.43-.97 2.71-.27-.1.32-1.26.8-2.44 3.98-3.86 5.46-9.25.3-1.73 1.79-4.75 1.03-2.09 1.21-5.75l2.33-3.75q1.25-.12 1.84-1.13.22-.37.65-.37h1.5q.49 0 .79.37 1.61 1.95 3.89 2.88Z"/><path fill="#a0a9b8" fill-opacity=".957" d="m277.75 175.46 6.79 12.04q.01 1.64 1.22 2.63.35.29.44.74l.64 3q.1.47.52.72 2.1 1.24 2.6 3.66-1.43-2.23-3.75-3.25-4.75-9-8.64-18.43.18-.8-.46-.84-.8-.04-.02-.23.32-.08.66-.04Z"/><path fill="#a4a7ab" fill-opacity=".698" d="M266.71 177.25q-.18 3.66-1.21 5.75-1.49 3.02-1.79 4.75l-4.1 7.16q-.26.44-.71.68-.79.42-.65 1.41c-1.5 3.07-4.29 4.08-6.76 7.12q-.32.39-.83.37-.74-.02-1.37.26l.5-.75 3.38-6.81q.38-.75-.22-.16l-1.7 1.68.25-1.5 2.51-2.24q.39-.34.44-.86.1-1.06 1.15-1.6.45-.23.48-.73.07-1.72 1.81-2.38 1.58-.6-.1-.45-1.86.17-2.2 2.2-.06.36-.3.63-.28.31-.85.45 1.33-3.68 4.31-6.14.38-.32.32-.8-.1-.89.6-1.08.47-.13.75-.53c.93-1.34 1.91-2.36 3-3.84q1.24-1.72 3.29-2.59ZM145.96 183q.97 1.98.44 4.08c-2.8 2.97-3.17 5.92-5.29 8.92-1.46 2.04-1.73 4.24-3.34 5.86q-1.85 1.86-4.27 2.93c.94-3.12 2.9-5.06 3.64-7.61q.13-.45.48-.77 1.11-1.04 1.35-2.61.07-.48.34-.89l3.65-5.66 3-4.25Z"/><path fill="#a0a9b8" fill-opacity=".957" d="M146.4 187.08c-2.3 4.61-6.23 11.01-6.52 16.13q-.03.65-.68.57-2.93-.38-3.46 2.41-.11.54-.58.81-1.52.89-3.56.37l.9-2.16 1-.42q2.42-1.07 4.27-2.93c1.61-1.62 1.88-3.82 3.34-5.86 2.12-3 2.49-5.95 5.29-8.92Z"/><path fill="#404146" fill-opacity=".298" d="m142.96 187.25-3.65 5.66q-.27.41-.34.89-.24 1.57-1.35 2.61-.35.32-.48.77c-.74 2.55-2.7 4.49-3.64 7.61l-1 .42.02-2.38q.01-.36.26-.63l2.4-2.46q.68-.7-.24-.38-.93.32-1.33 1.23-1.64 3.67-.37-.1.68-2.03 2.5-3.26.35-.24.41-.66.26-1.98 2.04-2.94.74-.41.41-.94-.21-.34.13-.57c2.08-1.37 1.65-3.78 4.23-4.87ZM284.54 187.5q2.68 3.78 6.15 6.81.43.36.41.93l-.02 1.02q-.01.5.37.83 1.79 1.58 1.78 4.08-.01 1.06.36.06.11-.32.19-.61.02-.07.07-.01l2.15 3.33q.21.32.09.69-.21.67.47 1.13.1.06.18-.03l.17-.19q.45-.53.25.13-.45 1.42 1.02 1.92.15.06.07.19l-.18.3q-.12.2.11.28l.72.22q.31.1.16.39-.57 1.16.34 1.3.57.09.69.64.04.17.04.33.01.3.16.56l3.15 5.48q.04.08.12.13.11.07.24.1t.19.15l4.58 8.69q.24.46-.17.32-.1-.04-.29-.28-1.25-1.61-.1.35l2.23 3.79q.26.45.52 0l.12-.23q.16-.28.12.04c-.14 1.47 2.05 2.22 2.14 4.54q0 .21-.19.3-.12.05-.26.09-.19.06-.14.25.52 1.94 1.83 3.21 1.92 1.86 2.32 2.45c1.41 2.07 4.7 5.34 4.58 7.84q-.02.44.23.81 2.19 3.29 3.7 6.93.17.41.5.7.63.56.5 1.35-.07.41.32.55l1.17.41q.65.24.45.91c-.45 1.46.35 1.6.83 2.45q3.01 5.43 5.77 10.99.75 1.52 3.2 4.99 2.09 2.98 3.04 6.6.12.46.54.69c.86.46.75 1.36 1.19 2.05q.81 1.27 2 2.21.38.3.36.78-.05.81.58 1.29.34.26.38.69c.17 1.98 2.66 2.01 1.97 4.66q-.15.56.43.64l.3.04q.47.06.39.54-.54 2.94 2.24 4.18.39.17.48.59.59 2.8 2.76 4.69.4.34.57.83c1.04 3 3.38 8.48 5.9 10.4q.4.3.53.78c.61 2.23 1.08 4.48 2.25 6.5q2.51 4.31 5.45 8.35c.89 1.21 1.42 2.67 2.05 4.03q.12.25.31.06.1-.1.19-.2.01-.01.02 0c1.27 2.26 2.4 4.21 3.17 6.78.35 1.19 2.04 2.41 2.09 3.28q.03.5.4.85 1.68 1.57 1.67 3.72 0 .48.31.86 1.47 1.76 1.44 3.97-.01.5.43.76.77.44 1.2 1.11.23.34.59.52 1.53.79 1.98 2.43.09.31.38.44.44.21.5.7.05.42-.13.8-.22.46.29.65.53.2.65.75l.49 2.35q.07.31.31.11.1-.09.2-.16.56-.45.18.09-.42.59.2 1 .33.22.57.55 1.02 1.41 1.84 2.93c.77 1.41 2.53 2.69 2.67 4.77q.02.4.35.63.42.3.5.8.08.53.4.95l1.25 1.72q.31.42.25.93-.15 1.2.94 1.49c.66 1.64 2.54 4.76 2.08 6.46q-.14.51-.32.01-2.4-6.38-6.38-11.93-.79-1.1-.39.19.76 2.45 2.61 4.23.4.38.4.93v.54q0 .77-.41.12c-1.63-2.65-3.6-5.18-5.03-7.79q-9.86-18.05-13.06-23.3c-1.85-3.03-2.95-6.41-4.19-8.58q-7.51-13.31-14.92-26.67-.04-.06-.06 0l-.08.26q-.1.37-.32.06-1.77-2.46-2.18-5.42-.07-.45-.42-.73c-1.63-1.28-2-3.52-2.88-4.96-1.32-2.17-1.72-4.26-3.37-6.34q-2.02-2.54-3.18-5.64-.18-.48-.53-.84c-1.76-1.8-1.7-3.85-3.28-6.04q-.85-1.17-1.4-2.37c-1.51-3.32-3.82-6.36-5.08-9.72-.89-2.37-2.78-4.02-3.7-6.12-2.46-5.63-6.63-9.88-8.95-15.53-2.45-5.97-6.19-10.19-8.72-15.54q-2.56-5.41-3.19-6.61c-1.24-2.35-2.55-6.12-4.42-7.95q-.34-.34-.48-.81c-.63-2.09-2.23-3.67-3.05-5.3-2.69-5.4-5.77-9.09-7.46-13.58q-.17-.47-.52-.81c-1.94-1.88-2.02-4.65-4.16-7.26q-.5-2.42-2.6-3.66-.42-.25-.52-.72l-.64-3q-.09-.45-.44-.74-1.21-.99-1.22-2.63Z"/><path fill="#a0a9b8" fill-opacity=".957" d="M263.71 187.75q-1.48 5.39-5.46 9.25-.14-.99.65-1.41.45-.24.71-.68l4.1-7.16Z"/><path fill="#404146" fill-opacity=".298" d="m251.5 197.21 2.94-4.98q.57-.14.85-.45.24-.27.3-.63.34-2.03 2.2-2.2 1.68-.15.1.45-1.74.66-1.81 2.38-.03.5-.48.73-1.05.54-1.15 1.6-.05.52-.44.86l-2.51 2.24Z"/><path fill="#a4a7ab" fill-opacity=".698" d="M236.57 189.62q-1.08 2.55-3.03 4.38.36-3.29 3.03-4.38ZM289.96 198.25c2.14 2.61 2.22 5.38 4.16 7.26q.35.34.52.81c1.69 4.49 4.77 8.18 7.46 13.58.82 1.63 2.42 3.21 3.05 5.3q.14.47.48.81c1.87 1.83 3.18 5.6 4.42 7.95q.63 1.2 3.19 6.61c2.53 5.35 6.27 9.57 8.72 15.54 2.32 5.65 6.49 9.9 8.95 15.53.92 2.1 2.81 3.75 3.7 6.12 1.26 3.36 3.57 6.4 5.08 9.72q.55 1.2 1.4 2.37c1.58 2.19 1.52 4.24 3.28 6.04q.35.36.53.84 1.16 3.1 3.18 5.64c1.65 2.08 2.05 4.17 3.37 6.34.88 1.44 1.25 3.68 2.88 4.96q.35.28.42.73.41 2.96 2.18 5.42.22.31.32-.06l.08-.26q.02-.06.06 0 7.41 13.36 14.92 26.67c1.24 2.17 2.34 5.55 4.19 8.58q3.2 5.25 13.06 23.3c1.43 2.61 3.4 5.14 5.03 7.79q.41.65.41-.12v-.54q0-.55-.4-.93-1.85-1.78-2.61-4.23-.4-1.29.39-.19 3.98 5.55 6.38 11.93.18.5.32-.01c.46-1.7-1.42-4.82-2.08-6.46 1.46 1.09 5.91 6.63 3.5 8.27q-.25.17-.25.47v.47q0 .28-.27.34l-7.45 1.74q.86-2.36-.44-4.33-.31-.46-.13-.99.34-1.01-.45-1.42-.43-.23-.69-.64c-2.31-3.56-4.66-5.06-4.53-10.2q1.41 2.69 3.49 4.89.57.6.23-.15-1.43-3.15-3.72-5.74l-1.83-3q-1.86-2.08-2.03-4.81-.03-.54-.47-.84-.7-.47-.72-1.3-.01-.47-.29-.85l-4.69-6.43q-6.18-13.25-10.03-19.55c-2.71-4.45-4.45-8.29-7.18-12.87q-1.21-2.03-2.11-4.22c-2.72-6.62-6.99-13.02-10.65-19.18q-4.66-7.84-8.83-15.95-1.59-4.23-4.42-7.75l-3.79-6.79c-2.24-5.42-5.95-10.14-8.6-15.52q-2.43-4.04-4.58-8.24c-3.49-6.83-7.78-13.1-11.06-20.13q-.17-.38-.54-.57-.31-.16-.39-.32c-3.78-8.14-8.48-16.15-12.3-23.84q-2.71-5.46-5.57-10.84 2.32 1.02 3.75 3.25Zm102.32 190.9q.71 1.36 1.91 2.4.59.52.25-.2-.95-2.05-2.75-3.48-.38-.3-.26.17.07.27.21.41.59.59.64.7Z"/><path fill="#404146" fill-opacity=".298" d="m249.79 204-.51-2.54q-.14-.69.36-.2l.3.3q.18.19.37 0l.38-.38q.32-.32-.12-.42-.18-.04-.35-.1-.45-.16.01-.32.17-.06.34-.11.4-.14.1-.44l-.21-.21q-.17-.16.02-.3l.77-.57 1.7-1.68q.6-.59.22.16l-3.38 6.81Z"/><path fill="#a0a9b8" fill-opacity=".957" d="m248.68 206.13.61-1.38q.63-.28 1.37-.26.51.02.83-.37c2.47-3.04 5.26-4.05 6.76-7.12q-.48 1.18-.8 2.44-.7 2.81.27.1.48-1.32 1.28-2.43.82-1.13.24.14l-1.49 3.3q-.25.53-.83.46-1.56-.18-2.37.81-2.55 3.14-5.87 4.31ZM228.96 201.25l-.25.5-.25.25q-3.46-.48-3.56 2.82-.02.53-.51.72-.75.3-.76.88-.08 4.61-4.33 6.21-.48.18-.68.65l-1.09 2.48q-1.33 3.01-.49-.02.09-.36.09-.69-.02-1.96-.24-.11-.18 1.57-1.17 2.77-.35.42-.32.97l.14 3.07v.75l-6.5 10.25q.35-2.93-.73-5.64-.3-.74.48-.92l4.56-1.11a.7.69-11.2 0 0 .53-.78q-1.02-6.89 3.51-11.93c.52-.58 1.11-.37 1.14-1.48q.01-.59.58-.7 2.19-.45 3.37-2.37.25-.4.24-.87-.03-5.75 6.24-5.7Z"/><path fill="#404146" fill-opacity=".298" d="M228.71 201.75c.3 2.09.56 3.93-.8 5.73q-1.74 2.32-4.09 4.11-.4.31-.45.81-.2 1.94-1.66 3.26-.37.34-.48.82c-.43 2.01-2.82 6.99-5.69 6.02v-.75l5.32-8.33q.11-.17.28-.27.45-.28.34.24-.06.27.12.05 3.23-4.1 6.35-8.24.77-1.03.51-3.2l.25-.25Z"/><path fill="#a4a7ab" fill-opacity=".698" d="M228.46 202q.26 2.17-.51 3.2-3.12 4.14-6.35 8.24-.18.22-.12-.05.11-.52-.34-.24-.17.1-.28.27l-5.32 8.33-.14-3.07q-.03-.55.32-.97.99-1.2 1.17-2.77.22-1.85.24.11 0 .33-.09.69-.84 3.03.49.02l1.09-2.48q.2-.47.68-.65 4.25-1.6 4.33-6.21.01-.58.76-.88.49-.19.51-.72.1-3.3 3.56-2.82Z"/><path fill="#a0a9b8" fill-opacity=".957" d="M320.65 258.94c2.65 5.38 6.36 10.1 8.6 15.52q-5.39-7.15-8.6-15.52ZM333.04 281.25q2.83 3.52 4.42 7.75-2.84-3.51-4.42-7.75Z"/><path fill="#fff" d="M237.79 301q1.42 5.26 4.43 9.71 1.83 2.69 3.05 5.33 3.12 6.71 8.53 11.85 8.08 14.53 16.52 28.99.88 1.5.81 1.97a2.51 1.59-84.2 0 1-1.71 2.18q-127.2-.02-253.42-.28-2.82 0-4.27-.05a1.82 1.82 0 0 1-1.47-2.79q9.78-15.61 18.67-31.53 3.55-6.36 4.83-8.15.74-1.04 1.05-1.93c.68-1.92 1.54-3.01 2.78-4.43q.93-2.91 2.77-5.26c.63-.8 1.55-.85 1.14-2.32q8.44-15.35 11.54-20.24 1.46-2.29 4.96-2.29 79.26-.01 158.52-.01c2.99 0 6.59-.41 10.07.32q.51.1.79.54 5.72 8.93 10.41 18.39Z"/><path fill="#a0a9b8" fill-opacity=".957" d="m237.79 301 3.82 5q.3.4.32.9.07 1.79 1.6 2.64.44.25.6.73c.86 2.61 1.57 3.95 3.6 6.3 1.09 1.26 1.28 2.6 2.12 3.87q2.32 3.49 3.95 7.45-5.41-5.14-8.53-11.85-1.22-2.64-3.05-5.33-3.01-4.45-4.43-9.71Z"/><path fill="#404146" fill-opacity=".298" d="M41.5 304.29c.41 1.47-.51 1.52-1.14 2.32q-1.84 2.35-2.77 5.26.44-4.63 3.91-7.58Z"/><path fill="#a0a9b8" fill-opacity=".957" d="m376.26 360.77 4.69 6.43q.28.38.29.85.02.83.72 1.3.44.3.47.84.17 2.73 2.03 4.81-1.71-1.19-2.23-3.22-.13-.52-.61-.77-1.11-.59-1.34-1.92-.09-.54-.48-.91-3.19-3.04-3.54-7.41ZM386.29 378q2.29 2.59 3.72 5.74.34.75-.23.15-2.08-2.2-3.49-4.89v-1ZM391.64 388.45q-.14-.14-.21-.41-.12-.47.26-.17 1.8 1.43 2.75 3.48.34.72-.25.2-1.2-1.04-1.91-2.4-.05-.11-.64-.7Z"/></svg>
